# xmcd
# Copyright (C) 1995-1998 Ti Kan
#
# Track frame offsets:
#       150
#       22114
#       39544
#       60622
#       84670
#       103143
#       107243
#       122757
#       141909
#       160981
#       183417
#       220537
#
# Disc length: 3535 seconds
#
# Revision: 0
# Processed by: cddbd v1.5.2PL0 Copyright (c) Steve Scherf et al.
# Submitted via: CD-Transfer v1.0
#
DISCID=aa0dcd0c
DTITLE=Stone Roses, The - Ian Brown - John Squire
DYEAR=89
DGENRE=
TTITLE0=I Wanna Be Adored
TTITLE1=She Bangs The Drums
TTITLE2=Waterfall
TTITLE3=Don't Stop
TTITLE4=Bye, Bye Badman
TTITLE5=Elisabeth, My Dear
TTITLE6=(Song For My) Sugar Spun Sister
TTITLE7=Made Of Stone
TTITLE8=Shoot You Down
TTITLE9=This Is The One
TTITLE10=I Am The Resurrection
TTITLE11=Fools Gold (Ext. Version)
EXTD=
EXTT0=
EXTT1=
EXTT2=
EXTT3=
EXTT4=
EXTT5=
EXTT6=
EXTT7=
EXTT8=
EXTT9=
EXTT10=
EXTT11=
PLAYORDER=
